<svg xmlns="http://www.w3.org/2000/svg" viewBox="0 0 640 520" fill="none" aria-hidden="true">
  <defs>
    <linearGradient id="bg" x1="0" y1="0" x2="640" y2="520" gradientUnits="userSpaceOnUse">
      <stop stop-color="#f6f8f6"/>
      <stop offset="1" stop-color="#e8ede6"/>
    </linearGradient>
    <linearGradient id="dress" x1="220" y1="180" x2="420" y2="420" gradientUnits="userSpaceOnUse">
      <stop stop-color="#f8efe8"/>
      <stop offset="1" stop-color="#ead8cf"/>
    </linearGradient>
  </defs>
  <rect width="640" height="520" fill="url(#bg)"/>
  <ellipse cx="500" cy="120" rx="180" ry="160" fill="#d4ddd2" opacity="0.55"/>
  <ellipse cx="120" cy="420" rx="140" ry="90" fill="#b5c4b3" opacity="0.25"/>
  <path d="M250 430c35-18 105-18 140 0" stroke="#8aa68a" stroke-width="3" stroke-linecap="round" opacity="0.45"/>
  <circle cx="285" cy="165" r="34" fill="#f3ddd6"/>
  <circle cx="355" cy="160" r="32" fill="#edd9cf"/>
  <path d="M235 205c18-8 42-12 65-10 18 2 35 8 50 18 8 6 14 14 18 23 6 14 8 30 6 46-4 34-24 64-52 82-20 13-44 20-68 20-28 0-54-10-74-28-24-22-38-54-36-86 2-28 16-54 38-70 12-9 27-15 43-17 8-1 16-1 24 0 10 1 19 4 28 8" fill="url(#dress)"/>
  <path d="M355 205c14 8 28 22 34 38 8 20 8 42-2 62-12 24-36 42-63 48" fill="#f0e2da"/>
  <path d="M210 250c-8 42 8 88 38 118 24 24 56 36 88 34" stroke="#d8c4b8" stroke-width="2" opacity="0.5"/>
  <path d="M150 390c24 18 54 28 85 28 42 0 82-16 110-44" stroke="#6b8e6b" stroke-width="2.5" stroke-linecap="round" opacity="0.35"/>
  <circle cx="118" cy="392" r="16" fill="#f8efe8" opacity="0.95"/>
  <circle cx="145" cy="410" r="12" fill="#f5e8e2" opacity="0.9"/>
  <circle cx="168" cy="388" r="14" fill="#efe0da" opacity="0.9"/>
  <circle cx="500" cy="402" r="18" fill="#f8efe8" opacity="0.95"/>
  <circle cx="528" cy="418" r="13" fill="#f0e2da" opacity="0.9"/>
  <circle cx="548" cy="395" r="15" fill="#efe0da" opacity="0.9"/>
  <path d="M95 430c18-10 42-12 62-4 12 5 22 14 28 26" stroke="#8aa68a" stroke-width="2" stroke-linecap="round" opacity="0.45"/>
  <path d="M470 430c20-8 46-6 64 8 10 8 17 19 20 31" stroke="#8aa68a" stroke-width="2" stroke-linecap="round" opacity="0.45"/>
  <path d="M300 118c0-10 8-18 18-18s18 8 18 18-8 18-18 18-18-8-18-18Z" fill="#6b8e6b" opacity="0.35"/>
</svg>
